{
	"asset":{
		"generator":"Khronos glTF Blender I/O v4.4.55",
		"version":"2.0"
	},
	"extensionsUsed":[
		"KHR_materials_emissive_strength"
	],
	"scene":0,
	"scenes":[
		{
			"name":"Scene",
			"nodes":[
				0,
				1,
				2,
				3,
				4
			]
		}
	],
	"nodes":[
		{
			"mesh":0,
			"name":"Circle.001",
			"scale":[
				2.5,
				5,
				2.5
			]
		},
		{
			"mesh":1,
			"name":"Circle.002",
			"scale":[
				2.5,
				5,
				2.5
			]
		},
		{
			"mesh":2,
			"name":"Circle.003",
			"scale":[
				2.5,
				5,
				2.5
			]
		},
		{
			"mesh":3,
			"name":"Circle.004",
			"scale":[
				2.5,
				5,
				2.5
			]
		},
		{
			"mesh":4,
			"name":"Circle.005",
			"scale":[
				2.5,
				5,
				2.5
			]
		}
	],
	"animations":[
		{
			"channels":[
				{
					"sampler":0,
					"target":{
						"node":0,
						"path":"translation"
					}
				},
				{
					"sampler":1,
					"target":{
						"node":0,
						"path":"rotation"
					}
				},
				{
					"sampler":2,
					"target":{
						"node":0,
						"path":"scale"
					}
				}
			],
			"name":"Action",
			"samplers":[
				{
					"input":16,
					"interpolation":"STEP",
					"output":17
				},
				{
					"input":16,
					"interpolation":"STEP",
					"output":18
				},
				{
					"input":19,
					"interpolation":"LINEAR",
					"output":20
				}
			]
		},
		{
			"channels":[
				{
					"sampler":0,
					"target":{
						"node":1,
						"path":"translation"
					}
				},
				{
					"sampler":1,
					"target":{
						"node":1,
						"path":"rotation"
					}
				},
				{
					"sampler":2,
					"target":{
						"node":1,
						"path":"scale"
					}
				}
			],
			"name":"Action.001",
			"samplers":[
				{
					"input":16,
					"interpolation":"STEP",
					"output":21
				},
				{
					"input":16,
					"interpolation":"STEP",
					"output":22
				},
				{
					"input":19,
					"interpolation":"LINEAR",
					"output":23
				}
			]
		},
		{
			"channels":[
				{
					"sampler":0,
					"target":{
						"node":2,
						"path":"translation"
					}
				},
				{
					"sampler":1,
					"target":{
						"node":2,
						"path":"rotation"
					}
				},
				{
					"sampler":2,
					"target":{
						"node":2,
						"path":"scale"
					}
				}
			],
			"name":"Action.002",
			"samplers":[
				{
					"input":16,
					"interpolation":"STEP",
					"output":24
				},
				{
					"input":16,
					"interpolation":"STEP",
					"output":25
				},
				{
					"input":19,
					"interpolation":"LINEAR",
					"output":26
				}
			]
		},
		{
			"channels":[
				{
					"sampler":0,
					"target":{
						"node":3,
						"path":"translation"
					}
				},
				{
					"sampler":1,
					"target":{
						"node":3,
						"path":"rotation"
					}
				},
				{
					"sampler":2,
					"target":{
						"node":3,
						"path":"scale"
					}
				}
			],
			"name":"Action.003",
			"samplers":[
				{
					"input":16,
					"interpolation":"STEP",
					"output":27
				},
				{
					"input":16,
					"interpolation":"STEP",
					"output":28
				},
				{
					"input":19,
					"interpolation":"LINEAR",
					"output":29
				}
			]
		},
		{
			"channels":[
				{
					"sampler":0,
					"target":{
						"node":4,
						"path":"translation"
					}
				},
				{
					"sampler":1,
					"target":{
						"node":4,
						"path":"rotation"
					}
				},
				{
					"sampler":2,
					"target":{
						"node":4,
						"path":"scale"
					}
				}
			],
			"name":"Action.004",
			"samplers":[
				{
					"input":16,
					"interpolation":"STEP",
					"output":30
				},
				{
					"input":16,
					"interpolation":"STEP",
					"output":31
				},
				{
					"input":19,
					"interpolation":"LINEAR",
					"output":32
				}
			]
		}
	],
	"materials":[
		{
			"doubleSided":true,
			"emissiveFactor":[
				1,
				0.11441032588481903,
				0.03991693630814552
			],
			"extensions":{
				"KHR_materials_emissive_strength":{
					"emissiveStrength":3.299999952316284
				}
			},
			"name":"Material.001",
			"pbrMetallicRoughness":{
				"baseColorFactor":[
					1,
					0.07454868406057358,
					0.07454868406057358,
					1
				],
				"metallicFactor":0,
				"roughnessFactor":0.5
			}
		}
	],
	"meshes":[
		{
			"name":"Circle.007",
			"primitives":[
				{
					"attributes":{
						"POSITION":0,
						"NORMAL":1,
						"TEXCOORD_0":2
					},
					"indices":3,
					"material":0
				}
			]
		},
		{
			"name":"Circle.008",
			"primitives":[
				{
					"attributes":{
						"POSITION":4,
						"NORMAL":5,
						"TEXCOORD_0":6
					},
					"indices":3,
					"material":0
				}
			]
		},
		{
			"name":"Circle.009",
			"primitives":[
				{
					"attributes":{
						"POSITION":7,
						"NORMAL":8,
						"TEXCOORD_0":9
					},
					"indices":3,
					"material":0
				}
			]
		},
		{
			"name":"Circle.010",
			"primitives":[
				{
					"attributes":{
						"POSITION":10,
						"NORMAL":11,
						"TEXCOORD_0":12
					},
					"indices":3,
					"material":0
				}
			]
		},
		{
			"name":"Circle.011",
			"primitives":[
				{
					"attributes":{
						"POSITION":13,
						"NORMAL":14,
						"TEXCOORD_0":15
					},
					"indices":3,
					"material":0
				}
			]
		}
	],
	"accessors":[
		{
			"bufferView":0,
			"componentType":5126,
			"count":384,
			"max":[
				1.9936599731445312,
				1.2993084192276,
				1.9841301441192627
			],
			"min":[
				-1.9936599731445312,
				0,
				-1.9841301441192627
			],
			"type":"VEC3"
		},
		{
			"bufferView":1,
			"componentType":5126,
			"count":384,
			"type":"VEC3"
		},
		{
			"bufferView":2,
			"componentType":5126,
			"count":384,
			"type":"VEC2"
		},
		{
			"bufferView":3,
			"componentType":5123,
			"count":768,
			"type":"SCALAR"
		},
		{
			"bufferView":4,
			"componentType":5126,
			"count":384,
			"max":[
				1.480224609375,
				1.2993084192276,
				1.4699265956878662
			],
			"min":[
				-1.480224609375,
				0,
				-1.4699265956878662
			],
			"type":"VEC3"
		},
		{
			"bufferView":5,
			"componentType":5126,
			"count":384,
			"type":"VEC3"
		},
		{
			"bufferView":6,
			"componentType":5126,
			"count":384,
			"type":"VEC2"
		},
		{
			"bufferView":7,
			"componentType":5126,
			"count":384,
			"max":[
				1.7299504280090332,
				1.2993084192276,
				1.7310516834259033
			],
			"min":[
				-1.7299504280090332,
				0,
				-1.7310516834259033
			],
			"type":"VEC3"
		},
		{
			"bufferView":8,
			"componentType":5126,
			"count":384,
			"type":"VEC3"
		},
		{
			"bufferView":9,
			"componentType":5126,
			"count":384,
			"type":"VEC2"
		},
		{
			"bufferView":10,
			"componentType":5126,
			"count":384,
			"max":[
				1.559391975402832,
				1.2993084192276,
				1.5716416835784912
			],
			"min":[
				-1.559391975402832,
				0,
				-1.5716416835784912
			],
			"type":"VEC3"
		},
		{
			"bufferView":11,
			"componentType":5126,
			"count":384,
			"type":"VEC3"
		},
		{
			"bufferView":12,
			"componentType":5126,
			"count":384,
			"type":"VEC2"
		},
		{
			"bufferView":13,
			"componentType":5126,
			"count":384,
			"max":[
				1.4380877017974854,
				1.2993084192276,
				1.4141427278518677
			],
			"min":[
				-1.4380877017974854,
				0,
				-1.4141427278518677
			],
			"type":"VEC3"
		},
		{
			"bufferView":14,
			"componentType":5126,
			"count":384,
			"type":"VEC3"
		},
		{
			"bufferView":15,
			"componentType":5126,
			"count":384,
			"type":"VEC2"
		},
		{
			"bufferView":16,
			"componentType":5126,
			"count":2,
			"max":[
				1.4583333333333333
			],
			"min":[
				0.041666666666666664
			],
			"type":"SCALAR"
		},
		{
			"bufferView":17,
			"componentType":5126,
			"count":2,
			"type":"VEC3"
		},
		{
			"bufferView":18,
			"componentType":5126,
			"count":2,
			"type":"VEC4"
		},
		{
			"bufferView":19,
			"componentType":5126,
			"count":35,
			"max":[
				1.4583333333333333
			],
			"min":[
				0.041666666666666664
			],
			"type":"SCALAR"
		},
		{
			"bufferView":20,
			"componentType":5126,
			"count":35,
			"type":"VEC3"
		},
		{
			"bufferView":21,
			"componentType":5126,
			"count":2,
			"type":"VEC3"
		},
		{
			"bufferView":22,
			"componentType":5126,
			"count":2,
			"type":"VEC4"
		},
		{
			"bufferView":23,
			"componentType":5126,
			"count":35,
			"type":"VEC3"
		},
		{
			"bufferView":24,
			"componentType":5126,
			"count":2,
			"type":"VEC3"
		},
		{
			"bufferView":25,
			"componentType":5126,
			"count":2,
			"type":"VEC4"
		},
		{
			"bufferView":26,
			"componentType":5126,
			"count":35,
			"type":"VEC3"
		},
		{
			"bufferView":27,
			"componentType":5126,
			"count":2,
			"type":"VEC3"
		},
		{
			"bufferView":28,
			"componentType":5126,
			"count":2,
			"type":"VEC4"
		},
		{
			"bufferView":29,
			"componentType":5126,
			"count":35,
			"type":"VEC3"
		},
		{
			"bufferView":30,
			"componentType":5126,
			"count":2,
			"type":"VEC3"
		},
		{
			"bufferView":31,
			"componentType":5126,
			"count":2,
			"type":"VEC4"
		},
		{
			"bufferView":32,
			"componentType":5126,
			"count":35,
			"type":"VEC3"
		}
	],
	"bufferViews":[
		{
			"buffer":0,
			"byteLength":4608,
			"byteOffset":0,
			"target":34962
		},
		{
			"buffer":0,
			"byteLength":4608,
			"byteOffset":4608,
			"target":34962
		},
		{
			"buffer":0,
			"byteLength":3072,
			"byteOffset":9216,
			"target":34962
		},
		{
			"buffer":0,
			"byteLength":1536,
			"byteOffset":12288,
			"target":34963
		},
		{
			"buffer":0,
			"byteLength":4608,
			"byteOffset":13824,
			"target":34962
		},
		{
			"buffer":0,
			"byteLength":4608,
			"byteOffset":18432,
			"target":34962
		},
		{
			"buffer":0,
			"byteLength":3072,
			"byteOffset":23040,
			"target":34962
		},
		{
			"buffer":0,
			"byteLength":4608,
			"byteOffset":26112,
			"target":34962
		},
		{
			"buffer":0,
			"byteLength":4608,
			"byteOffset":30720,
			"target":34962
		},
		{
			"buffer":0,
			"byteLength":3072,
			"byteOffset":35328,
			"target":34962
		},
		{
			"buffer":0,
			"byteLength":4608,
			"byteOffset":38400,
			"target":34962
		},
		{
			"buffer":0,
			"byteLength":4608,
			"byteOffset":43008,
			"target":34962
		},
		{
			"buffer":0,
			"byteLength":3072,
			"byteOffset":47616,
			"target":34962
		},
		{
			"buffer":0,
			"byteLength":4608,
			"byteOffset":50688,
			"target":34962
		},
		{
			"buffer":0,
			"byteLength":4608,
			"byteOffset":55296,
			"target":34962
		},
		{
			"buffer":0,
			"byteLength":3072,
			"byteOffset":59904,
			"target":34962
		},
		{
			"buffer":0,
			"byteLength":8,
			"byteOffset":62976
		},
		{
			"buffer":0,
			"byteLength":24,
			"byteOffset":62984
		},
		{
			"buffer":0,
			"byteLength":32,
			"byteOffset":63008
		},
		{
			"buffer":0,
			"byteLength":140,
			"byteOffset":63040
		},
		{
			"buffer":0,
			"byteLength":420,
			"byteOffset":63180
		},
		{
			"buffer":0,
			"byteLength":24,
			"byteOffset":63600
		},
		{
			"buffer":0,
			"byteLength":32,
			"byteOffset":63624
		},
		{
			"buffer":0,
			"byteLength":420,
			"byteOffset":63656
		},
		{
			"buffer":0,
			"byteLength":24,
			"byteOffset":64076
		},
		{
			"buffer":0,
			"byteLength":32,
			"byteOffset":64100
		},
		{
			"buffer":0,
			"byteLength":420,
			"byteOffset":64132
		},
		{
			"buffer":0,
			"byteLength":24,
			"byteOffset":64552
		},
		{
			"buffer":0,
			"byteLength":32,
			"byteOffset":64576
		},
		{
			"buffer":0,
			"byteLength":420,
			"byteOffset":64608
		},
		{
			"buffer":0,
			"byteLength":24,
			"byteOffset":65028
		},
		{
			"buffer":0,
			"byteLength":32,
			"byteOffset":65052
		},
		{
			"buffer":0,
			"byteLength":420,
			"byteOffset":65084
		}
	],
	"buffers":[
		{
			"byteLength":65504,
			"uri":"ondas_emission.bin"
		}
	]
}
